<?xml version="1.0" encoding="utf-8"?>
<!-- Generator: Adobe Illustrator 25.4.1, SVG Export Plug-In . SVG Version: 6.00 Build 0)  -->
<svg version="1.1" id="Layer_1" xmlns="http://www.w3.org/2000/svg" xmlns:xlink="http://www.w3.org/1999/xlink" x="0px" y="0px"
	 viewBox="0 0 1484.2 1235.3" style="enable-background:new 0 0 1484.2 1235.3;" xml:space="preserve">
<style type="text/css">
	.st0{fill:#8D9471;}
	.st1{fill:#9CA37D;}
	.st2{fill:#A6B085;}
	.st3{fill:#A5AF85;}
	.st4{fill:#FAFAF8;}
	.st5{fill:#B3BC90;}
</style>
<path class="st0" d="M1484.2,981.6V809.7c-1.1-1.4-2.8-2.2-4.5-2.4c-8.7-1.1-17.5-1.3-26.3-1.8c-13.1-0.9-26.1-1.9-39.1-3.4
	c-25.4-3-50.7-6.8-75.9-11c-52.5-8.9-104.5-20.5-155.8-34.8c-29.8-8.2-59.2-17.3-88.8-26.2c-40.5-12.2-80.5-25.4-119.7-41.3
	c-35.7-14.5-71.2-29.5-107.1-43.6c-17.1-6.8-34.3-13.3-51.6-19.6c-3.2-1.2-5.2-2.6-3.9-6.6c2.3-7.6-0.1-11.6-7.8-14.2
	c-2.7-0.9-3.8-2.3-3.8-5.2c0.2-10.2-5-14-14.7-10.2c-3.7,1.4-5.5,0.4-7.2-2.9c-2.5-4.8-5.8-6.3-10.1-5.3c-3,0.7-4.7,3.1-6.4,5.5
	c-1.7,2.4-3.2,3.1-6,1.6c-3.8-2-7.2-1.2-8.8,2.7c-1.5,3.5-3.9,5-7.2,6c-3.3,1-6.3,1.5-9.7,0.5c-40.1-11.1-80.5-20.8-121.5-28
	c-26.3-4.6-52.6-8.7-79.2-11.9c-14.8-1.8-29.5-3-44.3-4.6c-4.4-0.5-5-1.5-3.4-5.6c1.4-3.1,2-6.4,1.8-9.8c-0.1-1.4-0.5-2.8-1.3-4
	c-2.4-3.6-7.4-4.6-11-2.2c-2.3,1.4-4.4,3.2-6.3,5.2c-1.7,1.9-3.3,1.6-4.8-0.4c-0.6-0.9-1-2-1.7-2.9c-2.6-3.1-4.7-7.5-9.7-6.4
	c-5.3,1.1-6.1,5.5-6.1,10.1c0,0.5-0.1,1-0.1,1.4c-0.4,2.4-1.8,3.2-4.2,2.7c-1.4-0.4-2.8-0.8-4.1-1.4c-6.8-2.4-11.5-0.4-14.3,6.3
	c-1.2,3.1-3.2,4-6.2,4.1c-6.2,0.2-12.4-0.8-18.7-0.9c-32.5-0.3-64.9,0-97.3,2.6c-22.9,1.8-45.9,3.5-68.7,6
	c-26.2,2.8-52.3,6.5-78.3,11.3c-15,2.8-30.1,5.9-45,9.5c-7.3,1.7-14.7-1.8-17.9-8.6c-2.4-5.1-7.8-6.8-12.9-4
	c-4.9,2.7-4.9,2.7-6.9-2.7c-2-5.1-6.5-7.6-11-5.8c-3.3,1.3-4.5,4.4-5.7,7.4c-2.8,6.6-2.7,6.6-9.6,5c-8.9-2.1-15.5,2.9-14.4,11.1
	c0.8,5.9,0.8,5.9-4.8,7c-3.4,0.7-6.7,1.8-7.4,5.7c-0.7,4,2,5.8,5,7.2c0.3,0.1,0.5,0.4,0.5,1c-4.3,2.6-8.9,4.8-13.6,6.5
	c-2.6,0.8-4.9,2.5-6.5,4.6v368.7h0v253.7h1484.2L1484.2,981.6L1484.2,981.6z"/>
<path class="st1" d="M1484.2,465.1v338.9c-1.8,2.4-4.4,2.2-7,2.3c-13.6,0.3-27.1-1.2-40.7-2c-24.6-1.6-48.8-5.9-73.2-9.2
	c-29.6-4.1-59-9.8-88.2-16c-42.4-8.9-84.3-20.2-125.9-32.2c-31.5-9.1-62.7-19.1-94.1-28.7c-36-11-70.8-25.2-105.5-39.5
	c-26.8-11-53.5-22-80.5-32.6c-17.7-7-35.4-13.9-53.3-20.4c-3.4-1.2-4.5-3.5-4-7.1c1.2-7.7-0.6-11-7.5-14c-2.9-1.2-4-3.1-4.1-6.2
	c-0.2-8.3-4.6-11.8-12.9-9.8c-4.7,1.1-7.7,0.5-10.5-3.8c-3.4-5.2-9.2-5.4-13.5-0.7c-2.8,3-5.3,4.7-9.5,3.2c-3.4-1.2-5.8,0.9-7.5,3.8
	c-3.1,5.2-10,8.3-15.7,6.7c-16.4-4.6-33-8.8-49.7-12.8c-28-6.7-56.1-12.9-84.5-17.5c-20.7-3.4-41.3-6.7-62.1-9.3
	c-14.1-1.8-28.2-3.7-42.4-4.3c-1.1,0-2.2-0.2-3.3-0.4c-7.1-1.3-7.7-2.2-5.9-9.3c0.1-0.5,0.3-0.9,0.3-1.4c0.8-4.4,1.2-8.9-3.2-11.6
	c-4.1-2.6-7.9-0.9-11.5,1.7c-6.2,4.5-6.3,4.4-10.9-1.5c-2.4-3-5-5.7-9.2-4.6s-5.5,4.4-6.1,8.3c-0.8,5.1-2.3,6-7.1,4.7
	c-8.8-2.4-11.5-1.3-15.9,6.7c-1,2.1-3.1,3.4-5.3,3.4c-3,0.2-6.1,0.3-9.1,0.1c-20.8-1.8-41.6-1.2-62.3-0.7
	c-19.3,0.5-38.6,1.9-57.9,3.3c-22.3,1.6-44.6,3.4-66.8,6.2c-20.1,2.5-40.2,5.5-60.2,8.9c-15.8,2.7-31.4,6-47,9.7
	c-6.2,1.7-12.8,1-18.6-1.8c-1.7-0.8-3-2.3-3.6-4.2c-2.2-6-5.8-8.2-11.9-6.3c-4.4,1.4-7,0.7-9.3-3.7c-3.4-6.5-11.5-6.6-14.3,0.1
	c-3,7.1-6.3,9.8-14.4,7.6c-6.6-1.9-12.2,4-11.5,11.1c0.4,4.4-1.1,6.5-5.1,7.7c-7.6,2.3-8.3,3.7-6.2,11.4c0.5,1.4,0.3,2.9-0.4,4.1
	c-2,3.3-11,6.2-15,4.8v-240c2.1-1.8,3.5-0.1,5,1c10.4,7.2,20,15.4,30.5,22.3c5.3,3.5,10.8,6.9,17,8.7c8.8,2.6,17,0,24.7-4
	c12.7-6.6,23.3-16.2,34.6-24.8c10-7.6,19-16.6,30.4-22.4c13.4-6.8,26.9-6.5,40.1,0c12.7,6.2,24,14.6,34.3,24.2
	c14.3,13.2,29.9,25,44.5,37.8c20.9,18.1,42.8,34.9,65.7,50.4c10,6.9,20.1,13.6,31.1,18.8c11.8,5.8,25.4,7,38,3.2
	c12.4-3.5,24.2-9,34.9-16.2c11.8-7.8,25-12,39.2-11.1c12.8,0.9,25.1,4.7,36.9,9.8c20,8.6,39.8,17.9,60.1,25.9
	c14.7,5.7,29.2,5.1,44.2,1.1c17.7-4.8,32.7-14.9,48.5-23.4c15.8-8.4,31.2-17.3,47.7-24.5c17.8-7.7,35.4-6.4,52.4,2
	c23.7,11.8,47.4,23.5,72,33.6c22.4,9.2,45.7,15.7,69.2,21c13.2,3,27,2.4,40.7,1.5c23.7-1.6,46.7-8.7,67.2-20.6
	c10.5-6,20.2-13.4,30.5-19.8c20.1-12.4,41.1-22.9,64.7-27.2c12.3-2.4,25,0.1,35.4,7c14.3,9.2,30.1,14.4,46.5,18
	c11.3,2.5,22-0.4,32.1-6c14.4-8,26-19.8,39.3-29.4c21.5-15.5,41.3-33,63.3-47.8c10.1-6.8,20.8-12.3,33.3-13.6
	c11.8-1.2,22.3,2.1,32.3,7.9c21.6,12.6,38.6,30.3,55.4,48.3c12.6,13.6,25,27.3,38.1,40.4C1481.5,461.8,1482.9,463.4,1484.2,465.1z"
	/>
<path class="st2" d="M1484.2,271.1v186.2c-2.7,1.3-3.8-0.9-5.2-2.3c-11.4-11.8-22.5-24-33.8-35.9c-15.4-16.4-30.6-33-49.7-45.4
	c-10.2-6.6-20.5-12.2-32.7-13.6c-8.9-1-17.4,1.5-25.5,4.9c-15.2,6.3-28.2,16.2-40.8,26.5c-11.5,9.3-23.4,18.1-35.2,27.1
	c-11.8,8.9-23.1,18.5-34.9,27.4c-3.6,2.6-7.4,5-11.4,7c-13.1,7-26.7,6-40.2,1.6c-12.4-4-24.6-8.7-35.7-15.8c-13.4-8.6-28-8.4-43-4.6
	c-20.7,5.2-39.3,14.7-57.3,25.7c-12.8,7.8-24.5,17.3-38,23.9c-16.2,8-33.1,13.5-51.2,15.4c-24.6,2.5-49.4,0.3-73.1-6.7
	c-27.8-8-54.3-19.1-80.7-30.7c-11.4-5-22-11.8-33.3-17c-9.4-4.3-19.2-7.4-29.6-8c-11.5-0.6-22,3.2-32,8
	c-24.3,11.7-47.5,25.6-71.3,38.2c-10,5.3-20.9,8-32.2,9.6c-15.8,2.2-29.5-3.7-43.5-9.5c-15.6-6.5-30.8-14-46.5-20.3
	c-12.7-5.1-25.6-9.5-39.6-9.7c-13-0.1-25.7,3.6-36.6,10.8c-12.3,7.9-25,14.3-39.4,17.6c-10.4,2.5-21.4,1.3-31-3.3
	c-18.9-9.1-35.9-21.3-52.6-33.8c-7.9-5.9-16.2-11.2-23.8-17.6c-6.2-5.3-12.2-10.8-18.5-15.9c-8.6-7.1-17.5-13.9-26-21.1
	c-2-1.7-4.6-2.1-7.1-2.8c-1.2-0.6-1.9-1.9-1.7-3.2c1.8-3,5-2.1,7.4-2.2c11.2-0.3,19.5-6.3,26.2-14.1c13.1-15.3,25.1-31.5,37.7-47.2
	c7.4-9.2,14.6-18.6,23.3-26.8c4.7-4.4,10-8,16.3-9.7c9.7-2.7,18.3-0.1,26.4,5.3c8,5.4,14.7,12.3,22.5,17.9
	c18.6,13.5,36.3,28.3,55.5,41c6.2,4.2,12.8,7.9,19.6,11.1c11.6,5.3,22.6,4.2,33.2-2.8c8.1-5.3,15.1-11.9,22.5-17.9
	c11.6-9.5,22.8-8.5,35.2-1.9c8.8,4.7,16.8,10.5,24.9,16.2c7,5,13.5,3.7,20.2,0c11.9-6.7,23.1-14.1,32.7-24.1
	c7.4-7.7,15.8-14.4,24.3-21c16-12.3,31.9-10.6,48.3-1.2c13,7.5,24.1,17.4,36,26.3c9.3,7,18.8,13.8,28,21c4,3.2,8.4,5.8,13.1,7.9
	c3.8,1.8,8.3,1.5,11.8-0.9c5.6-3.4,10.9-7.3,16.5-10.7c6.5-4.1,13.9-6.7,21.5-7.7c7.1-0.8,13.2,1.8,18.3,6.7
	c7.3,6.9,14,14.5,21.8,20.9c5.6,4.6,12.1,7.9,19,9.9c5.7,1.6,11.1-0.5,16.1-3.1c11-5.8,20.3-13.8,29.3-22.2
	c16-15,30.3-31.6,45.5-47.4c6.8-7,14.7-11.6,24.7-12.4c7.5-0.7,15.1,0.9,21.7,4.6c16.8,9.7,31.2,22.4,43.8,36.9
	c16.5,19.1,34.5,36.4,55.9,49.9c8.6,5.4,18,9.2,28.3,9.9c9.7,0.7,18.6-2.7,27.1-6.9c21.7-10.7,39.8-25.3,54.4-45.1
	c17.3-23.5,34.1-47.1,48.8-72.3c5-8.6,11.2-16.6,19.4-22.9c9.8-7.5,20.1-9.4,32-5.9c14.9,4.3,26.8,13,38.6,22.6
	c13.7,11.2,26.9,23.2,42.3,32.1c6.9,4,8.5,3.6,14.2-2.1c10.2-10.1,21-19.2,34.4-24.8c2.7-1.1,5.4-1.9,8.3-2.4
	C1480.6,267.8,1482.9,268.2,1484.2,271.1z"/>
<path class="st2" d="M0.1,267.3c3.8-1.3,6.8-4,10.3-6c2.2-1.2,4.2-2.9,6.3-4.3c6.5-4.3,13.5-7.9,20.8-10.7c7.9-3,15.3-2,22.7,1.6
	c4.6,2.3,8.8,5.3,12.4,8.9c6.3,6.1,11.9,12.9,18,19.2c4.4,4.6,8.3,9.6,11.7,15c3.1,4.8,6.4,9.6,9.8,14.2c2.2,3.1,4.7,6,7.3,8.8
	c4.6,4.8,8.6,10.3,13.6,14.7c2.2,2,4.3,4.3,6.5,6.4c1.9,2.1,4.1,4,6.4,5.7c1.2,0.8,2.2,1.9,2.9,3.1c0.5,1.4-0.4,2-1.5,2.5
	c-13.9,5.9-24.5,16.6-36.2,25.6c-10.9,8.3-21.3,17.5-33.5,24s-24.3,6.5-36.5-1.1c-13.2-8.3-25.1-18.3-37.8-27.2
	c-1.4-1-2.1-2.4-3.2-3.5L0.1,267.3z"/>
<path class="st1" d="M0.1,608.1c3-1.2,6-2.3,8.9-3.5c1-0.4,2-0.8,3-1.4c1.8-1.2,2.2-2,1-3.9c-1.2-1.9-1.7-4.2-1.4-6.4
	c0.2-2.3,1.5-4.3,3.6-5.3c2.2-1.2,4.5-1.5,6.8-2.3c2.5-0.8,2.9-1.3,2.5-3.8c-0.3-1.4-0.4-2.9-0.2-4.3c1.4-8.2,8.1-12.5,16.2-10.5
	c0.9,0.2,1.9,0.5,2.8,0.8c3.4,1,3.4,1,4.9-2.4c0.8-1.9,1.7-3.8,2.7-5.6c3-4.9,9.2-6.6,14.2-4.1c1.4,0.8,2.5,2,3.3,3.4
	c1,1.6,1,4,2.7,5s3.5-1,5.4-1.3c2.8-0.6,5.8-0.3,8.4,0.8c2.8,1.3,4.8,3.2,5.2,6.4c0.3,2.4,1.4,3.8,3.8,4.2c0.6,0.1,1.2,0.3,1.8,0.7
	c3.4,2,6.8,2.1,10.6,1.2c9-2.2,18.1-4.1,27.2-5.9c8.6-1.7,17.2-3.6,25.9-4.9c11.4-1.7,22.7-3.8,34.1-5.3c8.6-1.1,17-2.8,25.6-3.5
	c7.5-0.6,14.9-1.9,22.4-2.5c5.1-0.4,10.1-1.5,15.3-1.3c2.2,0.1,4.4-0.8,6.6-0.8c6.1,0.2,12.1-1.5,18.2-1.1c1.4,0,2.9-0.2,4.3-0.4
	c0.8-0.2,1.6-0.3,2.4-0.4c7,0.3,14-1.4,21-1.1c2.9,0.1,5.8-0.1,8.6-0.6c2.1-0.3,4.1-0.4,6.2-0.3c4.6-0.1,9.3,0.3,13.9-0.8
	c1.4-0.2,2.9-0.3,4.3-0.2h49.9c2.2,0,4.5,0.2,6.7,0.5c4.9,0.8,9.9,0.4,14.9,0.3c1.5,0,2.8-0.9,3.2-2.4c0.1-0.3,0.2-0.6,0.4-0.9
	c1.1-2.7,2.2-5.3,5.1-6.6c3.5-1.7,7.5-2,11.2-0.8c1.2,0.4,2.4,0.9,3.6,1.3c1.2,0.4,2.1-0.2,2.3-1.6s0.1-2.9,0.4-4.3
	c0.5-3.6,3-6.6,6.4-7.8c3.8-1.4,8.7,0.1,11.6,3.7c1.1,1.4,2,2.9,3,4.4c1.3,1.9,1.8,2.1,3.3,0.6c1.8-1.7,3.7-3.2,5.8-4.4
	c2.5-1.5,5.5-2,8.3-1.3c3.4,0.6,6.1,3.2,6.9,6.5c0.8,2.8,0.8,5.7,0.1,8.5c-0.4,1.9-1.1,3.7-1.6,5.5c-0.3,1.2,0.1,2,1.2,2.2
	c2,0.5,4.1,0.8,6.1,1c4,0.2,8,0.8,11.9,0.9c8.6,0.4,17.1,2,25.7,2.8c10.7,0.9,21.2,2.8,31.8,4.2c7.3,1,14.5,2.2,21.8,3.3
	c11.4,1.8,22.7,3.7,34,5.8c10.2,1.8,20.3,4.2,30.5,6.3c7.7,1.6,15.3,3.2,23,5c12,2.8,24,5.7,35.9,8.7c8.2,2.1,16.4,4.3,24.5,6.7
	c2.4,0.9,5.1,0.7,7.4-0.4c0.3-0.1,0.6-0.2,0.9-0.3c2.9-0.3,5.3-2.5,5.9-5.4c1-3.6,5.8-5.9,9.5-4.5c3.5,1.4,5.5,0.8,7.5-2.3
	c3.1-4.9,13.4-5.9,17.4,0.6c0.9,1.4,1.2,3.5,3.1,4.1c1.6,0.5,3-0.7,4.6-0.9c2.8-0.4,5.5-1.2,8.5-0.2c4.7,1.5,6.9,4.9,7.5,9.5
	c0.1,1,0.1,1.9,0,2.9c0,3.2,0,3.3,2.8,4.1c2.2,0.5,4.2,1.7,5.7,3.3c3,3,4.3,7.3,3.4,11.5c-0.9,4.5-1.5,5.2,4.1,7
	c6.5,2.1,12.9,4.6,19.3,7.3c5.4,2.3,11.1,4.2,16.6,6.3c10,3.9,20,7.8,29.9,11.8c12.8,5.1,25.5,10.3,38.2,15.5
	c6.8,2.8,13.5,5.7,20.3,8.5c11.8,4.8,23.7,9.7,35.5,14.4c11.6,4.6,23.3,8.8,34.9,13.5c9.5,3.8,19.2,7.1,29,10.2
	c12.2,3.9,24.3,7.8,36.6,11.4c10.4,3,20.7,6.5,31.2,9.6c14.5,4.4,29,9,43.6,13.1c13.4,3.8,26.8,7.6,40.2,11.1
	c15.5,4,30.9,8.3,46.4,11.9c21.3,4.9,42.7,9.7,64.2,13.8c11.6,2.2,23.2,4.4,34.9,6.3c10.4,1.7,20.8,3.7,31.3,4.7
	c4.6,0.4,9.2,1.4,13.7,2.1c2.8,0.4,5.7,0.7,8.5,1.2c7,1,13.9,2.5,20.8,3.1c5.6,0.5,11.1,1.3,16.7,1.3c4.4,0,8.9,0.9,13.3,1.4
	c0.9,0.2,1.9,0.3,2.8,0.4c10.1-0.1,20.1,1.7,30.2,1c2.4-0.2,4.8,0,7.2,0v5.8c-4.5-0.1-9,0.2-13.4-0.8c-1.7-0.2-3.5-0.3-5.3-0.2
	c-3.2,0.1-6.4-0.1-9.5-0.7c-1.4-0.2-2.9-0.3-4.3-0.2c-3,0.1-6.1-0.1-9.1-0.7c-0.5-0.1-0.9-0.2-1.4-0.2c-5.5,0.3-10.8-1.1-16.2-1.1
	c-3.2,0-6.3-0.7-9.5-1c-6.2-0.6-12.3-1.6-18.5-2.4c-7.6-1-15.2-2-22.8-3.1c-7.3-1-14.6-2.1-21.8-3.3c-12.8-2.1-25.6-4.2-38.3-6.5
	c-12.1-2.2-24.2-4.8-36.2-7.3c-9.4-2-18.8-4-28.1-6.1c-3.6-0.8-7.2-1.7-10.7-2.6c-12.1-3-24.2-5.9-36.3-9.1
	c-11.6-3-23.1-6.3-34.7-9.5c-4.3-1.2-8.6-2.3-13-3.6c-9.1-2.6-18.1-5.2-27.2-7.9c-19.2-5.6-38.1-12.2-57.3-17.6
	c-5.5-1.5-11-3.3-16.5-5.2c-8.9-3.1-18.1-5.4-26.9-8.9c-10.8-4.3-21.9-8.1-32.8-12.3c-12.5-4.8-25-9.7-37.5-14.8
	c-19.7-8-39.4-16.1-59-24.2c-7.8-3.2-15.7-6.4-23.6-9.5c-8.4-3.2-16.6-6.7-25-9.9c-9.2-3.6-18.5-7-27.8-10.5
	c-3.6-1.4-7.2-2.7-10.8-4c-1.2-0.5-2.4-1-3.5-1.5c-0.9-0.3-1.4-1.4-1.1-2.3c0.1-0.2,0.2-0.4,0.3-0.5c0.6-0.9,1.5-1.7,2.1-2.7
	c2.5-3.7,1.5-8.6-2.1-11.1c-0.9-0.6-1.9-1-2.9-1.2c-1.7-0.4-3.5-0.4-5.2-0.6c-1.1,0.1-2-0.8-2.1-1.9c0-0.3,0-0.5,0.1-0.8
	c0.4-1.7,1-3.4,1.3-5.1c0.5-2.7,0.1-5.1-2.2-7c-1.8-1.7-4.4-2.3-6.7-1.5c-2,0.6-3.9,1.5-5.7,2.5c-0.8,0.5-1.6,1-2.5,1.5
	c-0.8,0.6-1.9,0.4-2.5-0.4c-0.1-0.2-0.2-0.4-0.3-0.6c-0.5-1.4-0.8-2.8-1.2-4.1c-0.5-1.5-1.2-3-2.3-4.2c-2-2.4-5.6-2.7-8-0.7
	c-0.1,0-0.1,0.1-0.2,0.1c-1.9,1.5-3.3,3.6-3.9,5.9c-1.2,4.2-2.7,5-6.1,1.3c-0.3-0.4-0.7-0.7-1-1c-1.1-1-2.2-2.1-3.8-1.4
	c-1.9,0.7-3.1,2.4-3.2,4.4c-0.1,1.4,1,2.9-0.5,4c-1.1,0.8-2.5,0.6-3.7,0.6c-1.9-0.1-3.8,0.5-5.5,1.5c-2.2,1.5-4.4,1.3-6.9,0.6
	c-14.6-4.3-29.3-8.1-44-11.7c-15.8-3.9-31.8-7.3-47.7-10.9c-19.8-4.5-39.9-7.5-59.9-10.9c-10.9-1.9-21.8-3.4-32.7-5
	c-7.6-1.1-15.2-2-22.8-2.9c-4.4-0.5-8.9-0.8-13.4-1.2c-2.7-0.2-5.4-0.5-8.1-1c-5.5-1.1-11.1-0.5-16.7-1.6c-2.3-0.4-4.8-0.2-7.2-0.4
	s-3.2-1.5-2.4-3.6c0.6-1.6,1.5-3.2,2.2-4.8c1.3-2.6,2-5.4,2-8.3c0-2.5-0.9-4.4-3.1-5.6c-2-1.1-4.5-0.9-6.3,0.6
	c-2.1,1.5-4,3.3-5.6,5.3c-4.3,5.3-4.6,6.5-8.1-1c-1.2-2.8-2.9-5.3-5.1-7.4c-2.7-2.4-5.8-1.8-7.4,1.5c-0.5,1.2-0.8,2.4-0.8,3.7
	c0,1.6,0,3.2,0,4.8c0,1,0,1.9-0.1,2.9c0,1.1-0.8,1.9-1.9,2c-0.3,0-0.6,0-0.8-0.2c-2.7-0.9-5.4-2-8.1-3c-0.8-0.3-1.5-0.6-2.2-0.8
	c-4-1.2-8.2,1-9.4,5c-0.1,0.3-0.2,0.7-0.2,1.1c0,0.2,0,0.3-0.1,0.5c-0.8,4.5-0.8,4.6-5.5,4.6c-5.6,0-11.2,0.5-16.7-0.8
	c-1.4-0.2-2.9-0.3-4.3-0.2h-54.8c-2.2-0.1-4.5,0.1-6.7,0.6c-0.6,0.2-1.2,0.3-1.9,0.3c-8.2-0.4-16.2,1.1-24.4,1.1
	c-2.6-0.1-5.1,0.1-7.6,0.6c-0.5,0.1-0.9,0.2-1.4,0.2c-6.2-0.3-12.4,0.9-18.6,1.1c-1.8,0.1-3.5,0.3-5.2,0.5c-0.8,0.2-1.6,0.3-2.4,0.3
	c-5.5-0.3-10.8,0.8-16.2,1.1c-5.1,0.3-10.1,1.1-15.2,1.6c-3.8,0.4-7.6,0.7-11.4,1.2c-4.8,0.5-9.5,1.3-14.3,1.7
	c-8,0.7-15.8,2.1-23.7,3.1c-5.4,0.7-10.8,1.5-16.1,2.4c-16.6,2.5-33.1,5.7-49.5,9.2c-6.3,1.3-12.5,2.8-18.7,4.3
	c-1.6,0.4-3.1,0.8-4.7,1.1c-1.7,0.5-3.6,0.2-5-0.9c-2.3-1.8-5.1-2.8-8-2.7c-2.3,0-2.8-0.5-2.8-2.8c0-1.4-0.3-2.9-0.9-4.2
	c-1.7-4.1-5.5-5.5-9.4-3.3c-1.2,0.8-2.3,1.7-3.4,2.7c-1.1,0.9-2.1,2-3.2,2.9c-0.8,0.6-1.9,0.5-2.5-0.2c-0.2-0.3-0.4-0.6-0.4-1
	c-0.2-1.3-0.3-2.5-0.3-3.8c0-1.9-0.5-3.8-1.3-5.6c-0.9-2.1-2.9-3.6-5.2-3.6c-1.8-0.2-3.5,0.7-4.5,2.2c-1.1,1.8-2,3.7-2.6,5.6
	c-0.8,2.2-1.7,4.5-2.7,6.7c-0.3,1-1.4,1.6-2.4,1.3c-0.1,0-0.2-0.1-0.4-0.2c-1.3-0.5-2.6-1.1-3.9-1.8c-2.3-1.3-4.8-1.4-7.4-1.4
	c-4.1-0.1-7.7,4.8-6.7,8.8c0.7,2.3,1.5,4.5,2.5,6.7c0.7,1.5,0.1,2.6-1.6,2.7s-3.5,0.1-5.3,0.1c-1.9,0-3.8,0.4-5.6,1.2
	c-1.5,0.7-2.7,1.8-2.6,3.6c0,1.7,1.2,2.6,2.6,3.2c2.2,1,4.4,1.8,6.6,2.7c0.5,0.2,0.9,0.5,0.8,1c-0.1,0.4-0.4,0.8-0.8,1
	c-0.7,0.4-1.5,0.7-2.2,0.9c-3.2,1.1-6.3,2.4-9.2,4c-4.6,2.3-9.2,4.5-14.3,5.4V608.1z"/>
<path class="st1" d="M0.1,364.3c2.1,0.5,3.7,1.8,5.4,3c8.1,6,16,12.2,24.2,18.1c4.8,3.5,9.8,6.6,14.9,9.6c4.2,2.4,8.8,3.9,13.6,4.5
	c0.8,0.1,1.6,0.2,2.4,0.1c5.8-1,11.5-2.3,16.9-5.2c7.5-4.1,14.2-9.2,20.9-14.4c4.4-3.4,9-6.7,13.2-10.3c4.2-3.6,8.8-6.9,13-10.5
	c6.7-5.8,14.2-10.5,22.3-14c0.7-0.3,1.4-0.7,2.1-1.2c1.3-0.1,2.5-0.3,3.8-0.5c12.7-1.8,24.7-0.4,35.8,6.6c8.2,5,16,10.5,23.5,16.4
	c0.5,0.4,1,0.8,1.5,1.2c4.4,4.1,8.9,8.2,13.3,12.3c1.4,1.3,3,2.4,4.7,3.3l1.9,1.9c8.4,4.4,14.7,11.5,22.3,17
	c14.5,10.7,26.9,24,41.8,34.2c9.5,6.4,18.3,13.8,27.9,20.1c10.9,7.1,21.6,14.7,33.4,20.5c11.8,5.7,23.8,7,36.6,3.4
	c11.4-3.1,22.2-8,32-14.5c13.2-8.8,27.9-14.1,44.2-12.8c9.8,0.8,19.1,3.3,28.4,6.6c16.5,5.9,32,14.2,48.2,20.8
	c7.5,3,14.9,6.4,22.5,9.1c13.1,4.6,26.2,3.8,39.5,0.4c13.7-3.4,25.5-10.6,37.6-17.2c20.9-11.3,41.2-23.7,63.4-32.5
	c14.9-5.9,29.7-4.3,44.2,1.2c17.2,6.6,32.4,17.1,49.5,24c19,7.7,37.5,16.8,57.4,22.3c12.9,3.5,25.7,7.8,38.8,10.5
	c4.6,1,9.2,1.5,13.9,1.5c12.4,0,24.8,1,37.2-0.9c11.9-1.9,23.5-5,34.8-9.2c19-6.9,34.7-19.4,51.5-29.9c20.6-12.8,42-23.3,66.1-27.6
	c12.5-2.4,25.4,0.2,36,7.2c14.2,9.1,30,14.7,46.4,17.9c10.5,2.1,20.7-0.3,30.2-5.7c9.4-5.3,17.5-12.2,25.8-18.8
	c11.1-8.8,22.2-17.5,33.7-25.8c11.7-8.5,22.4-18.2,34.2-26.5c11.4-7.9,22.8-15.4,36.7-19c14.6-3.7,27.4-0.1,39.9,7
	c23,13.1,40.8,32,58.4,51.1c10.9,11.8,22,23.6,33.1,35.2c1.9,1.9,3.6,4,5.2,6.2v3.8c-1.6-0.4-3-1.3-4-2.5
	c-5.3-5.3-11-10.3-15.8-16.1s-10.6-10.6-15.2-16.6c-2.3-3-5.3-5.5-8-8.2c-7.6-7.6-14.4-15.9-22.2-23.2c-6.6-6.3-13.6-12.1-21.1-17.4
	c-3.8-2.6-7.6-5.3-11.6-7.7c-8.3-5.1-17.2-8.3-27.2-8.2c-6.4,0.1-12.7,1.4-18.6,3.9c-8.7,3.6-17,8.2-24.7,13.7
	c-11,7.7-21.2,16.5-31.7,24.8c-6.4,5-13.2,9.6-19.6,14.6c-7,5.3-13.8,10.9-20.7,16.3c-5.1,4.1-10.1,8.4-15.4,12.1
	c-8.5,5.8-17.6,10.5-27.8,12.3c-3,0.5-6,0.5-9,0.1c-13.8-1.8-26.7-6.4-39.4-11.7c-4.4-2-8.6-4.3-12.6-6.9
	c-5.1-3.3-10.7-5.7-16.7-7.2c-1.1-0.3-2.2-0.5-3.3-0.6c-5.4-0.1-10.8-0.3-16.2,0.9c-12.8,2.7-25.3,7-37.1,12.7
	c-11.6,5.8-22.8,12.2-33.7,19.3c-7.9,5.1-15.6,10.6-23.7,15.4c-6.1,3.5-12.5,6.5-19,9.1c-10.4,4.1-21.2,7.2-32.2,9.2
	c-4.2,0.8-8.5,1.1-12.8,1.7c-6.7,0.9-13.4,0.6-20.1,0.8c-2.1,0.1-4.2-0.1-6.2-0.5c-1.4-0.3-2.8-0.4-4.3-0.4
	c-6.4,0-12.8-0.8-18.9-2.6c-16.1-4.1-32.1-8.6-48-13.8c-6.9-2.2-13.4-5.2-20-7.9c-10.5-4.3-20.9-8.8-31.3-13.4
	c-4.2-1.9-8.4-4-12.4-6.2c-9.4-5.1-18.9-10.1-28.8-14.2c-4.1-1.8-8.4-3-12.8-3.8c-3.8-0.5-7.6-0.8-11.5-0.7
	c-9.7-0.1-18.6,2.6-27.2,6.8c-7,3.4-14.1,6.9-21,10.5c-7.3,3.9-14.5,8.1-21.8,12.1c-3.8,2.1-7.5,4.2-11.3,6.3
	c-6.2,3.4-12.3,6.8-18.5,10.1c-2.4,1.3-4.9,2.3-7.5,3.2c-7.3,2.5-14.6,4.6-22.2,6.2c-6,1.2-12.1,0.9-18.2,0.3
	c-6.4-0.8-12.6-2.5-18.4-5.1c-11.5-4.8-23-9.6-34.4-14.7c-8.2-3.7-16.3-7.4-24.6-10.8c-8.5-3.7-17.5-6.3-26.6-8
	c-3.5-0.6-7-0.9-10.5-1.3c-2.9-0.3-5.7,0.4-8.6,0.8c-10.8,1.5-21.1,5.5-30.1,11.7c-3.7,2.5-7.6,4.7-11.5,6.9
	c-7.4,4.3-15.8,6.1-23.9,8.5c-12.8,3.7-25,1.7-36.8-3.8c-8-3.8-15.4-8.6-22.8-13.3c-10.2-6.5-20.2-13.5-29.9-20.8
	c-6.5-4.9-13.2-9.6-19.7-14.4c-3.7-2.8-7.2-5.8-10.7-8.9c-6.7-5.9-13.4-11.8-20.4-17.4s-13.9-10.9-20.4-16.7c-3.1-2.8-6.4-5.3-9.6-8
	c-0.6-0.5-1.2-1-1.8-1.6c-5.3-5.3-10.9-10.3-16.9-14.9c-7.7-6-15.8-11.5-24.7-15.6c-4.7-2.1-9.6-3.5-14.7-4.3
	c-2.5-0.4-5.1-0.4-7.6,0.1c-7.1,1.3-14,3.2-20.1,7.4c-5.4,3.7-10.6,7.7-15.7,11.9c-9,7.5-18.2,14.7-27.6,21.5
	c-3.6,2.6-7.2,5.4-10.9,7.9c-6.3,4.2-13.4,7-20.8,8.1c-5.9,0.9-11.5-0.5-16.8-3c-7.5-3.7-14.5-8.1-21.1-13.2
	c-7.4-5.6-14.9-11-22.3-16.6c-0.9-0.7-1.9-1.2-3-1.5L0.1,364.3z"/>
<path class="st3" d="M1484.2,461.2c-1.4-0.3-2.7-1.1-3.6-2.2c-2.2-2.3-4.6-4.4-6.5-7.1c-1.1-1.4-2.3-2.7-3.6-3.9
	c-8.6-8.4-16.1-17.8-24.9-25.9c-3.9-5.4-8.8-9.7-13.4-14.3c-2.5-2.5-4.3-5.5-6.9-7.9c-12.3-11.4-25.1-22.3-39.8-30.6
	c-5.9-3.3-12.2-5.6-18.8-6.9c-9.5-2-18.4,0.3-27.2,3.4c-6,2.3-11.7,5.2-17,8.8c-10.6,6.9-20.8,14.4-30.5,22.4
	c-7.4,6.1-15.1,11.8-22.9,17.4c-6.6,4.8-12.9,9.9-19.3,15c-7,5.6-13.8,11.4-21,16.8c-7.5,5.6-15.5,10.2-24.7,12.4
	c-6.2,1.4-12.7,1.5-19,0.1c-10.5-2.2-20.7-5.5-30.5-9.9c-3.7-1.6-7.2-3.4-10.6-5.5c-3.7-2.2-7.5-4.3-11.4-6.1
	c-4.9-2.4-10.3-3.6-15.7-3.8c-10.1-0.4-19.7,1.7-29.2,4.7c-8.5,2.8-16.9,6.1-25,9.9c-6.4,2.9-12.3,6.8-18.4,10.3
	c-10.1,5.8-19.7,12.6-29.4,19c-9.5,6.2-19.7,11.2-30.4,15.1c-9.4,3.5-19.2,6.1-29.2,7.8c-5,1-10.1,1.5-15.1,1.5
	c-5.9-0.2-11.8-0.2-17.8,0c-6.6,0.2-13.1-0.2-19.6-1.2c-5-0.9-10-2.1-14.9-3.6c-8-2.2-16-4.5-24-6.8c-11-3.3-22-6.8-32.5-11.5
	c-9.9-4.4-20-8.4-30-12.8c-5.2-2.3-10.6-4.5-15.5-7.5c-5.2-3.1-10.7-5.8-16.1-8.5c-8.2-4.2-16.7-8-25.9-9.8
	c-3.7-0.9-7.5-1.4-11.4-1.6c-6.1,0-12.1,0.9-17.9,2.7c-4.6,1.4-9,3.2-13.3,5.4c-6.3,3.2-12.7,6.2-18.9,9.5
	c-9,4.8-17.9,9.8-26.9,14.8c-4.3,2.4-8.7,4.8-13.1,7.1c-5.2,2.8-10.4,5.5-15.7,8.3c-2.7,1.4-5.5,2.5-8.5,3.2
	c-4.6,1.2-9.2,2.6-13.8,3.9c-2,0.5-4.1,0.8-6.2,0.8c-1.9,0-3.8,0.3-5.7,0.5c-0.5,0.1-0.9,0.2-1.4,0.2c-6.1-1-12.4-0.5-18.5-2.6
	c-6.3-2.2-12.5-4.9-18.7-7.4c-11.5-4.7-22.9-9.8-34.3-15c-10.9-5-21.9-9.8-33.7-12.3c-6.2-1.4-12.5-2.7-19-2.7
	c-4.2,0-8.3,0.5-12.3,1.4c-9.5,2.2-18.6,6.1-26.8,11.4c-3.4,2.2-6.7,4.4-10.2,6.4c-9.9,5.5-20.9,8-31.8,10.3
	c-0.9,0.2-1.9,0.3-2.9,0.2c-8.3-0.5-16.5-1.6-24.1-5.4c-6.6-3.3-12.9-7-19.1-11.1c-7-4.5-13.9-9.1-20.8-13.8
	c-4.5-3.1-8.7-6.5-13.1-9.7c-5.7-4.1-11.4-8.2-17.1-12.4c-5.9-4.4-11.4-9.3-16.9-14.2c-4.7-4.1-9.4-8.2-14.3-12
	c-6.6-5.1-13.1-10.2-19.2-15.8c-1.6-1.5-3.8-2.4-4.9-4.5c4.2,0.3,7.6,2.7,10.5,5.4c5.9,5.4,12.4,10,18.5,15.2
	c3.8,3.2,7.6,6.3,11.3,9.6c7.4,6.8,15.2,13.1,23.4,19c8.4,5.9,16.6,11.9,24.9,18c3.2,2.4,6.5,4.6,10,6.7s7,4.5,10.4,6.9
	c6.5,4.3,13.4,8.2,20.5,11.4c3.6,1.7,7.5,2.7,11.5,3c0.8,0,1.6,0,2.4,0.2c4,1.1,7.9,0.7,11.9-0.2c9.5-2.2,19-4.7,27.6-9.4
	c2.7-1.4,5.2-3.1,7.8-4.8c5.9-3.9,12.1-7.2,18.6-9.9c9.8-4,20.4-5.6,31-4.6c6.2,0.7,12.3,2,18.3,3.9c9.1,2.9,18.1,6.4,26.8,10.3
	c12.8,5.8,25.6,11.7,38.7,16.7c4.5,1.7,8.8,3.7,13.3,5.5c4,1.7,8.2,2.7,12.6,2.7c1.3,0,2.6,0.1,3.8,0.4c1.9,0.4,3.8,0.4,5.7,0
	c1.7-0.3,3.5-0.4,5.2-0.4c2.1,0,4.2-0.3,6.2-0.9c6.7-2.1,13.5-3.7,20.1-6.4c4.2-1.7,7.9-4.2,11.9-6.2c4.8-2.4,9.5-5.3,14.2-7.9
	c8.3-4.5,16.7-8.8,24.9-13.5c5.7-3.2,11.6-6.1,17.4-9.1c6.1-3.2,12.4-6,18.9-8.3c8.9-3.3,18.5-4.2,27.8-2.7
	c8.8,1.5,17.4,4.3,25.4,8.3c5.2,2.5,10.3,5.1,15.4,7.7c3,1.5,5.8,3.3,8.8,4.9c8.3,4.2,16.8,7.8,25.4,11.4
	c8.8,3.7,17.6,7.6,26.5,11.2c7,2.8,14.1,5.1,21.4,7.1c5.2,1.4,10.5,2.9,15.7,4.5c7.6,2.4,15.4,4.2,23.2,6c2.5,0.5,5.1,0.4,7.6,0.8
	c9.6,1.5,19.2,0.5,28.7,0.9c5.3,0.1,10.5-0.4,15.7-1.4c9.2-1.3,18.2-3.5,27-6.6c11.7-4.3,23.2-9.2,33.5-16.4
	c11.2-7.8,22.5-15.2,34.4-21.9c6.8-3.9,13.9-7.3,20.9-10.6c11.1-5,22.8-8.7,34.7-10.8c3.3-0.7,6.6-1.1,10-1.2c3.5,0,7,0.5,10.4,1.3
	c5.8,1.3,11.3,3.6,16.3,6.8c8.6,5.7,18.1,9.6,27.8,12.9c5.5,2,11.2,3.7,17,4.9c11.1,2.2,22.6,0.1,32.2-5.8
	c7.6-4.5,14.4-10.1,21.3-15.5c11.5-9.1,23-18.3,34.9-26.9c5.7-4.1,11.2-8.6,16.6-13c6.2-5.1,12.7-9.7,19-14.6
	c7.1-5.3,14.5-9.9,22.4-13.9c5.7-3,11.8-4.7,18.1-6.3c9.2-2.3,18.1-0.6,26.8,2.3c7.1,2.4,13.1,6.6,19.3,10.5
	c7.1,4.4,13.4,9.8,19.8,15.1c5.9,4.9,11.5,10.2,16.6,15.9c6.1,6.8,12.8,13,18.8,19.8c4.2,4.8,9,9.1,13.1,14
	c5.2,6.4,11.3,11.8,16.9,17.7c0.9,0.9,1.9,1.7,2.9,2.5V461.2z"/>
<path class="st4" d="M1484.2,231.8c-2.7,0.1-5.4,0.2-8.2,0.2H6.8c-2.2,0-4.5-0.1-6.7-0.2c0-0.3-0.1-0.8,0-0.9c0.2-0.2,0.6,0,0.9,0
	h1478.8c1.4,0,2.9,0,4.3,0L1484.2,231.8z"/>
<path class="st5" d="M1484.1,231.7V0H0v232h0v35.3c2.2,2.2,4.2,0.5,6-0.6c9-5.2,17-11.8,26.7-16c8-3.5,15.9-5.6,24.4-1.6
	c4.8,2.3,9.4,4.9,13.1,8.7c12.1,12.7,24.1,25.4,34,40.1c12.3,18.1,26.7,34.6,44.6,47.6c1.2,0.3,2.5,0.3,3.7-0.1
	c8.2-2.1,16.9-1.6,24.8,1.5c13.5,5.2,24.9,13.7,35.7,23.1c4.7,4,9.2,8.3,13.8,12.3c1.4,1.2,2.5,2.5,4.5,1.2c2.1,0.7,4.4,0.8,6.6,0.3
	c1.1-0.3,2.2-0.4,3.3-0.3c3.1,0,6.1-0.8,8.8-2.2c6.2-3,11.8-7.2,16.4-12.3c1.9-2.1,3.8-4.4,5.5-6.6c8.8-11.2,17.5-22.4,26.3-33.6
	c2.5-3.1,4.9-6.3,7.4-9.4c4.6-5.5,9.1-11.1,13.8-16.5s9.9-10.5,16.2-14.1c4.2-2.4,8.9-3.7,13.7-3.8c4,0,8,1,11.6,2.7
	c4.6,2.3,8.9,5.1,12.8,8.5c5.2,4.3,10,8.9,15.6,12.7c2.5,1.7,5,3.5,7.4,5.3c5.2,4,10.3,8.1,15.5,12c6.1,4.6,12.4,9,18.5,13.7
	c5.3,4,10.6,7.8,16.2,11.3c6.6,4.2,13.3,8.4,20.6,11.2c8.9,3.4,17.7,3.6,26.5-0.6c6.2-3,11.9-6.9,17-11.6c5-4.5,10.3-8.6,15.7-12.6
	c3.4-2.5,7.4-3.9,11.6-4c5.7-0.4,10.8,1.6,15.6,4c6.8,3.5,13.4,7.6,19.5,12.3c3.4,2.5,7,4.5,10.5,6.8c3.1,2,7,2.5,10.6,1.4
	c3.9-1,7.6-2.6,10.9-4.8c2.3-1.5,4.6-2.9,7-4.1c5-2.6,9.6-5.8,13.8-9.5c5.8-5.2,11.3-10.8,17-16.2c7.2-6.8,15.1-12.9,23.5-18.1
	c4.6-3,10-4.5,15.5-4.3c7.9,0.4,15.5,2.7,22.3,6.7c2.9,1.7,5.7,3.5,8.6,5.3c5.4,3.4,10.4,7.5,15.4,11.4c6.9,5.4,13.8,10.9,20.9,16
	c4.9,3.5,9.8,7.1,14.6,10.9c3.6,2.9,7.3,5.7,11.2,8.2c3.1,2,6.4,3.6,9.9,4.9c3.5,1.5,7.4,1.1,10.6-0.9c3.9-2.5,8-4.8,11.7-7.5
	c7.9-5.8,16.4-9.8,26.1-11.4c2-0.4,4.1-0.3,6.2,0.2c4.5,1,8.7,3.3,12,6.6c6.9,6.9,13.5,14.1,21.1,20.2c1.8,1.6,3.8,3,5.8,4.2
	c4.1,2.3,8.3,4.2,12.6,5.9c1.3,0.5,2.8,0.8,4.2,0.9c4.5,0.1,9-0.8,13-2.9c5.3-2.7,10.3-5.8,15.1-9.3c5-3.7,9.8-7.7,14.2-12.1
	c12.4-12.1,24.6-24.2,36.2-37.1c0.1-0.1,0.2-0.2,0.3-0.4c3.9-5.5,9-9.9,13.8-14.6c4.5-4.4,10.1-7.5,16.2-8.8
	c6.9-1.4,14.1-0.8,20.7,1.8c3.7,1.5,7.2,3.4,10.6,5.6c4.8,3,8.9,6.7,13.3,10.2c7.1,5.7,13.8,11.9,20.2,18.4c1.1,1.2,2.2,2.4,3.2,3.6
	c3.3,3.9,6.5,7.9,10.1,11.5c7.9,8.2,15.9,16.2,24.5,23.6c0.7,0.6,1.5,1.2,2.3,1.8c3.3,2.5,6.7,4.9,10.1,7.3c3.2,2.4,6.5,4.7,9.9,6.8
	c7.5,4.3,15.4,7.9,24,9.5c2.5,0.6,5,0.9,7.6,1c3.2-0.2,6.4-0.7,9.5-1.4c5.6-1.3,11.1-3.2,16.2-5.9c7.8-4,15.4-8.4,22.7-13.4
	c6.6-4.5,12.8-9.6,18.4-15.3c2.7-2.5,5.1-5.3,7.3-8.3c3.8-5.4,7.8-10.6,11.8-15.7c7.2-9.1,14.2-18.6,20.8-28.1
	c6.1-8.8,11.5-18.1,17-27.3c5.1-8.5,10.3-16.9,16.7-24.6c3.6-4.3,7.9-7.9,12.6-10.9c4.6-3.1,9.9-4.6,15.4-4.6c3.4,0,6.7,0.5,9.9,1.7
	c2.8,1,5.8,1.9,8.6,2.9c6.8,2.5,13.1,6.1,18.8,10.6c5.4,4.2,10.5,8.8,15.9,13c10.2,8,20.2,16.2,30.6,23.9c3.8,2.7,7.9,4.9,12.1,6.7
	c2.8,1.4,6.2,0.8,8.4-1.5c1.9-1.7,3.7-3.6,5.5-5.4c6-6,12.6-11.3,19.7-15.9c5.7-3.8,11.9-6.9,18.7-8.4c2.3-0.7,4.8-0.5,7,0.4
	L1484.1,231.7C1484.2,231.8,1484.1,231.8,1484.1,231.7z"/>
</svg>
