<svg id="Layer_1" data-name="Layer 1" xmlns="http://www.w3.org/2000/svg" viewBox="0 0 1484.16 773.76"><defs><style>.cls-1{fill:#8d9471;}.cls-2{fill:#9ca37d;}.cls-3{fill:#a6b085;}.cls-4{fill:#b3bc90;}.cls-5{fill:#a5af85;}.cls-6{fill:#fafaf8;}</style></defs><path class="cls-1" d="M1484.16,578.93V773.76H.05V382.13a13.62,13.62,0,0,1,6.55-4.62A83.24,83.24,0,0,0,20.2,371c-.08-.6-.23-.89-.55-1-3-1.46-5.71-3.28-5-7.23s4-5,7.44-5.71c5.64-1.13,5.64-1.11,4.81-7-1.16-8.16,5.44-13.24,14.39-11.11,6.87,1.64,6.84,1.63,9.61-5,1.24-3,2.48-6.06,5.74-7.36,4.5-1.8,9,.69,11,5.8,2,5.43,2,5.43,6.92,2.73,5.05-2.8,10.53-1.1,12.89,4a15.8,15.8,0,0,0,17.93,8.58c14.92-3.65,30-6.75,45.05-9.52q38.91-7.14,78.27-11.29c22.86-2.45,45.79-4.17,68.72-6,32.4-2.52,64.82-2.9,97.27-2.57,6.22.07,12.41,1.12,18.66.9,3.05-.1,5-1.09,6.2-4.14,2.73-6.71,7.49-8.66,14.27-6.29a35.06,35.06,0,0,0,4.09,1.37c2.31.52,3.73-.35,4.15-2.72a9.75,9.75,0,0,0,.13-1.43c0-4.6.89-9,6.15-10.08,5.07-1.07,7.14,3.3,9.72,6.44.71.85,1.08,2,1.72,2.88,1.42,2,3.08,2.28,4.75.42a29.56,29.56,0,0,1,6.26-5.19,7.93,7.93,0,0,1,12.32,6.21,21.26,21.26,0,0,1-1.79,9.81c-1.61,4.11-1,5.13,3.41,5.61,14.76,1.62,29.56,2.88,44.31,4.65,26.52,3.17,52.88,7.27,79.17,11.91,41,7.22,81.4,16.88,121.48,28,3.46,1,6.41.48,9.74-.55s5.72-2.49,7.21-6c1.61-3.85,5-4.7,8.78-2.67,2.78,1.52,4.33.82,6-1.59s3.34-4.77,6.38-5.48c4.34-1,7.58.47,10.13,5.3,1.73,3.28,3.51,4.29,7.22,2.86,9.63-3.71,14.88,0,14.66,10.25-.07,2.94,1.1,4.33,3.76,5.21,7.69,2.55,10.07,6.62,7.81,14.19-1.22,4.09.69,5.46,3.94,6.64q25.92,9.46,51.57,19.61c35.87,14.11,71.4,29.08,107.1,43.58,39.17,15.91,79.21,29.14,119.68,41.31,29.55,8.89,59,18,88.8,26.19a1559.68,1559.68,0,0,0,155.82,34.8c25.23,4.22,50.52,8,75.91,11,13,1.54,26.07,2.51,39.14,3.39,8.76.59,17.55.78,26.28,1.85A6.5,6.5,0,0,1,1484.16,578.93Z"/><path class="cls-2" d="M1484.16,234.29V573.17c-1.79,2.4-4.43,2.22-7,2.29-13.6.34-27.11-1.15-40.66-2-24.59-1.61-48.84-5.9-73.21-9.24-29.63-4.08-59-9.85-88.23-16-42.43-8.9-84.27-20.17-125.92-32.16-31.51-9.07-62.72-19.12-94.07-28.68-36-11-70.76-25.24-105.54-39.52-26.77-11-53.52-22.05-80.47-32.63-17.72-6.95-35.43-13.89-53.3-20.42-3.43-1.25-4.55-3.48-4-7.09,1.22-7.7-.58-11-7.52-14-2.89-1.23-4-3.07-4.11-6.24-.19-8.34-4.63-11.83-12.92-9.83-4.67,1.12-7.68.5-10.49-3.82-3.38-5.2-9.19-5.36-13.46-.67-2.76,3-5.28,4.67-9.54,3.16-3.36-1.18-5.77.89-7.45,3.78-3.07,5.25-10,8.29-15.73,6.68C714.1,362.18,697.51,358,680.86,354c-28-6.71-56.08-12.86-84.5-17.51-20.66-3.38-41.34-6.69-62.11-9.28-14.1-1.76-28.19-3.72-42.42-4.29a23.24,23.24,0,0,1-3.33-.37c-7.1-1.34-7.66-2.21-5.92-9.26.12-.47.26-.93.34-1.4.78-4.39,1.23-8.86-3.2-11.64-4.14-2.6-7.91-.85-11.5,1.74-6.25,4.5-6.28,4.44-10.93-1.48-2.35-3-5-5.7-9.25-4.61s-5.47,4.43-6.07,8.33c-.79,5.08-2.28,6-7.13,4.66-8.75-2.37-11.48-1.29-15.91,6.73a5.93,5.93,0,0,1-5.34,3.36,63,63,0,0,1-9.11.09c-20.77-1.79-41.59-1.21-62.34-.67-19.29.51-38.58,1.94-57.86,3.33-22.31,1.62-44.6,3.44-66.78,6.17q-30.21,3.72-60.22,8.91c-15.77,2.71-31.4,6-47,9.71a26.51,26.51,0,0,1-18.56-1.79,6.87,6.87,0,0,1-3.62-4.16c-2.24-6-5.83-8.17-11.88-6.31-4.45,1.38-7,.67-9.28-3.68-3.39-6.48-11.48-6.58-14.3.09-3,7.06-6.33,9.81-14.37,7.56-6.62-1.86-12.2,4-11.5,11.08.43,4.36-1.06,6.48-5.13,7.72-7.64,2.31-8.29,3.68-6.2,11.35a5,5,0,0,1-.44,4.14c-2,3.31-11,6.18-15,4.79v-240c2.1-1.79,3.45-.07,5,1,10.38,7.18,20,15.4,30.55,22.33,5.35,3.51,10.81,6.86,17,8.69,8.84,2.61,17,0,24.72-4,12.69-6.58,23.32-16.16,34.61-24.76,10-7.63,19-16.61,30.4-22.42,13.4-6.84,26.87-6.54,40.14,0,12.69,6.24,24,14.62,34.34,24.22,14.3,13.25,29.86,25,44.52,37.79A707.43,707.43,0,0,0,327,230.51c10,6.85,20.09,13.61,31.1,18.84a52.29,52.29,0,0,0,38,3.22,123.07,123.07,0,0,0,34.9-16.21c11.75-7.79,25-12,39.2-11.08,12.82.86,25.08,4.69,36.91,9.78,20,8.62,39.78,17.95,60.14,25.87,14.66,5.71,29.18,5.13,44.17,1.11,17.74-4.75,32.68-14.94,48.53-23.36s31.25-17.34,47.67-24.48c17.82-7.73,35.41-6.4,52.38,2,23.72,11.77,47.42,23.53,72,33.57,22.44,9.18,45.69,15.73,69.2,21,13.17,3,27,2.38,40.67,1.47a154.41,154.41,0,0,0,67.18-20.64c10.51-6,20.21-13.38,30.52-19.76,20.14-12.44,41.08-22.92,64.7-27.16a47.37,47.37,0,0,1,35.45,7c14.26,9.23,30.14,14.41,46.5,18,11.3,2.48,22-.41,32.11-6,14.44-8,26-19.83,39.31-29.4,21.46-15.48,41.33-33.05,63.31-47.81,10.11-6.79,20.84-12.28,33.29-13.58,11.76-1.22,22.26,2.07,32.27,7.94,21.55,12.61,38.59,30.29,55.39,48.34,12.62,13.57,25,27.33,38.14,40.45A43.46,43.46,0,0,1,1484.16,234.29Z"/><path class="cls-3" d="M1484.16,40.37V226.61c-2.65,1.31-3.81-.93-5.16-2.32-11.44-11.82-22.53-24-33.83-35.94-15.44-16.36-30.57-33-49.74-45.38-10.16-6.55-20.54-12.21-32.68-13.57-8.92-1-17.4,1.52-25.48,4.91-15.16,6.34-28.17,16.25-40.8,26.45-11.52,9.31-23.37,18.15-35.17,27.07s-23.08,18.54-34.93,27.41a88.87,88.87,0,0,1-11.4,7c-13.13,7-26.66,6-40.25,1.59-12.45-4-24.57-8.69-35.72-15.81-13.42-8.56-28-8.4-43-4.64-20.67,5.18-39.28,14.74-57.35,25.69-12.81,7.76-24.52,17.28-38,23.94-16.17,8-33.09,13.54-51.15,15.38a190.44,190.44,0,0,1-73.14-6.71c-27.82-8-54.35-19.08-80.7-30.74-11.39-5-22-11.75-33.3-17-9.43-4.34-19.19-7.41-29.64-8-11.51-.64-22,3.21-32,8-24.34,11.67-47.5,25.56-71.35,38.16-10,5.27-20.89,8-32.18,9.62-15.83,2.22-29.52-3.71-43.47-9.53-15.6-6.52-30.79-14-46.45-20.29-12.66-5.11-25.62-9.52-39.57-9.71A65.09,65.09,0,0,0,431.13,233c-12.32,7.92-25.05,14.3-39.44,17.56a46.23,46.23,0,0,1-31.05-3.33c-18.93-9.05-35.86-21.34-52.62-33.81-7.91-5.88-16.24-11.19-23.79-17.59-6.19-5.26-12.18-10.75-18.45-15.93-8.6-7.1-17.47-13.87-26-21.08-2-1.72-4.63-2.07-7.08-2.76a3.15,3.15,0,0,1-1.73-3.18c1.75-3,5-2.13,7.38-2.19,11.24-.27,19.5-6.28,26.23-14.15,13.1-15.29,25.06-31.52,37.67-47.22,7.39-9.21,14.58-18.65,23.26-26.75,4.73-4.41,10-8,16.32-9.73,9.69-2.71,18.31-.09,26.36,5.27s14.69,12.31,22.47,17.94c18.64,13.5,36.34,28.27,55.54,41a144,144,0,0,0,19.58,11.1c11.65,5.32,22.56,4.2,33.21-2.78,8.06-5.28,15.07-11.86,22.47-17.92,11.64-9.52,22.8-8.47,35.15-1.92,8.79,4.67,16.8,10.55,24.89,16.24,7.05,5,13.54,3.68,20.17,0,11.88-6.66,23.09-14.07,32.67-24.07,7.36-7.69,15.75-14.41,24.26-21,16-12.35,31.92-10.6,48.26-1.22,13,7.45,24.09,17.39,36,26.28,9.35,7,18.81,13.8,28,21A59.66,59.66,0,0,0,784,130.63a12.06,12.06,0,0,0,11.85-.86c5.64-3.36,10.86-7.33,16.47-10.73a53.06,53.06,0,0,1,21.53-7.66c7.1-.82,13.2,1.82,18.32,6.66,7.33,6.91,14,14.47,21.85,20.86a53.16,53.16,0,0,0,19,9.93c5.66,1.65,11.08-.47,16.1-3.11,11-5.79,20.31-13.84,29.31-22.25,16-15,30.27-31.65,45.5-47.39,6.79-7,14.73-11.63,24.68-12.4a37,37,0,0,1,21.69,4.65c16.79,9.66,31.2,22.38,43.79,36.93,16.53,19.1,34.52,36.44,55.93,49.94,8.59,5.42,18,9.18,28.27,9.94,9.71.72,18.62-2.68,27.12-6.89,21.66-10.73,39.84-25.34,54.4-45.1,17.28-23.46,34.09-47.12,48.77-72.32,5-8.65,11.22-16.65,19.4-22.92,9.76-7.47,20.11-9.37,32-5.94,14.86,4.3,26.81,13,38.55,22.58,13.68,11.23,26.89,23.19,42.34,32.1,6.87,4,8.51,3.59,14.2-2.06,10.16-10.08,21-19.18,34.42-24.75a39.23,39.23,0,0,1,8.29-2.36C1480.55,37,1482.94,37.44,1484.16,40.37Z"/><path class="cls-4" d="M1484.16,40.37a10.45,10.45,0,0,0-7-.43c-6.86,1.47-13,4.61-18.73,8.38a121.76,121.76,0,0,0-19.74,15.93c-1.8,1.81-3.59,3.65-5.47,5.39a7.18,7.18,0,0,1-8.39,1.53,62.4,62.4,0,0,1-12.14-6.69c-10.41-7.69-20.4-15.93-30.58-23.9-5.41-4.24-10.58-8.75-15.94-13A66.23,66.23,0,0,0,1347.39,17c-2.85-1-5.79-1.86-8.64-2.91a29.26,29.26,0,0,0-9.87-1.65A27,27,0,0,0,1313.46,17a55.86,55.86,0,0,0-12.59,10.94c-6.41,7.65-11.59,16.06-16.67,24.56-5.5,9.2-10.89,18.46-17,27.26-6.67,9.58-13.58,19-20.83,28.14q-6.09,7.69-11.81,15.72a64.53,64.53,0,0,1-7.26,8.28,119,119,0,0,1-18.42,15.28,208.35,208.35,0,0,1-22.71,13.35,68.54,68.54,0,0,1-16.2,5.86,57.58,57.58,0,0,1-9.47,1.41,36.5,36.5,0,0,1-7.58-1c-8.62-1.55-16.46-5.17-24-9.48a117.51,117.51,0,0,1-9.87-6.79c-3.39-2.41-6.73-4.89-10.08-7.34-.78-.57-1.54-1.15-2.27-1.77-8.59-7.44-16.63-15.45-24.53-23.6-3.55-3.67-6.72-7.69-10.07-11.55-1-1.2-2.1-2.41-3.2-3.56a222.3,222.3,0,0,0-20.15-18.42c-4.34-3.55-8.51-7.28-13.28-10.23a60.67,60.67,0,0,0-10.55-5.64,36.23,36.23,0,0,0-20.7-1.81A32.94,32.94,0,0,0,988,75.39c-4.78,4.7-9.89,9.11-13.83,14.62-.09.13-.21.24-.31.36-11.58,12.83-23.81,25-36.18,37.07a136.58,136.58,0,0,1-14.24,12.07,112.89,112.89,0,0,1-15.07,9.34,27.1,27.1,0,0,1-13,2.86,12.68,12.68,0,0,1-4.21-.85A92.37,92.37,0,0,1,878.52,145a41.79,41.79,0,0,1-5.83-4.2c-7.63-6.13-14.18-13.38-21.09-20.25a24.78,24.78,0,0,0-12-6.6,15.44,15.44,0,0,0-6.17-.18c-9.69,1.55-18.23,5.63-26.12,11.38-3.74,2.72-7.79,5-11.71,7.49a11.41,11.41,0,0,1-10.59.91,51.24,51.24,0,0,1-9.86-4.91,135.81,135.81,0,0,1-11.21-8.21c-4.74-3.79-9.63-7.41-14.57-10.93-7.18-5.09-14-10.63-20.94-16-5-3.93-10-8-15.43-11.39-2.85-1.77-5.65-3.62-8.57-5.28a49.37,49.37,0,0,0-22.3-6.67,26.46,26.46,0,0,0-15.49,4.32,153.28,153.28,0,0,0-23.49,18.13c-5.72,5.34-11.23,10.91-17,16.15a68.8,68.8,0,0,1-13.79,9.52,71.46,71.46,0,0,0-7,4.11,36.42,36.42,0,0,1-10.92,4.82,12.52,12.52,0,0,1-10.6-1.4c-3.5-2.24-7.1-4.3-10.46-6.78a126.3,126.3,0,0,0-19.46-12.26c-4.84-2.36-9.89-4.41-15.6-4a21,21,0,0,0-11.6,4c-5.37,4-10.7,8.07-15.72,12.56a72.15,72.15,0,0,1-17,11.61c-8.79,4.19-17.63,4-26.49.58-7.35-2.81-14-7-20.62-11.17C441.3,116.77,436,113,430.74,109c-6.1-4.66-12.38-9.07-18.51-13.7-5.23-3.94-10.33-8-15.53-12-2.41-1.85-4.88-3.62-7.37-5.34-5.54-3.83-10.4-8.48-15.57-12.74A57.19,57.19,0,0,0,361,56.7,27.12,27.12,0,0,0,349.41,54a28.47,28.47,0,0,0-13.71,3.85c-6.34,3.66-11.44,8.72-16.19,14.14s-9.26,11-13.82,16.55c-2.53,3.08-4.93,6.28-7.39,9.43Q285.15,114.78,272,131.56c-1.78,2.26-3.6,4.5-5.53,6.62a53.59,53.59,0,0,1-16.37,12.35,19.35,19.35,0,0,1-8.76,2.18A11.22,11.22,0,0,0,238,153a12.29,12.29,0,0,1-6.62-.28c-2,1.29-3.19,0-4.55-1.23-4.65-4.07-9.13-8.32-13.81-12.35-10.83-9.35-22.23-17.89-35.72-23.06a40.9,40.9,0,0,0-24.85-1.51,6,6,0,0,1-3.66.1c-17.86-13-32.3-29.45-44.56-47.59C94.32,52.43,82.38,39.67,70.26,27c-3.67-3.84-8.27-6.43-13.09-8.7-8.5-4-16.45-1.85-24.44,1.6-9.62,4.16-17.68,10.84-26.66,16C4.2,37,2.29,38.69.05,36.53V1C1.7.11,3.5.55,5.23.55Q742.11.52,1479,.55c1.72,0,3.52-.44,5.18.46Z"/><path class="cls-3" d="M.05,36.53c3.82-1.34,6.85-4,10.32-6,2.21-1.25,4.18-2.93,6.31-4.33A107.18,107.18,0,0,1,37.49,15.5c7.9-3,15.29-2,22.66,1.6A49.72,49.72,0,0,1,72.56,26c6.34,6.08,11.87,12.92,18,19.22A95.41,95.41,0,0,1,102.3,60.25c3.1,4.84,6.39,9.56,9.79,14.2a89.63,89.63,0,0,0,7.32,8.82C124,88.11,128.05,93.53,133,98c2.25,2,4.3,4.28,6.46,6.42a41.11,41.11,0,0,0,6.43,5.71,9.55,9.55,0,0,1,2.92,3.14c.53,1.44-.39,2-1.49,2.47-13.92,5.94-24.46,16.62-36.24,25.6-10.92,8.32-21.28,17.47-33.54,24s-24.35,6.45-36.48-1.15C27.89,155.91,16,145.92,3.27,137c-1.37-1-2.13-2.35-3.22-3.49Z"/><path class="cls-2" d="M.05,377.33c3-1.16,6-2.3,8.94-3.48a19.37,19.37,0,0,0,3-1.4c1.84-1.15,2.24-2,1-3.93a9.57,9.57,0,0,1-1.37-6.43,6.58,6.58,0,0,1,3.59-5.33c2.15-1.17,4.53-1.54,6.81-2.27,2.49-.8,2.85-1.28,2.47-3.79a13.36,13.36,0,0,1-.2-4.28c1.38-8.16,8.08-12.55,16.19-10.55.94.23,1.86.49,2.78.77,3.38,1,3.38,1,4.88-2.41a52.75,52.75,0,0,1,2.69-5.62,10.92,10.92,0,0,1,14.24-4.09,8.61,8.61,0,0,1,3.32,3.37c1,1.63,1,4,2.68,5s3.51-1,5.37-1.27a13.82,13.82,0,0,1,8.44.83c2.79,1.32,4.81,3.23,5.23,6.37.31,2.38,1.43,3.8,3.83,4.21a5.28,5.28,0,0,1,1.8.66c3.36,2,6.82,2.11,10.61,1.21q13.53-3.23,27.18-5.92c8.61-1.71,17.2-3.58,25.9-4.86,11.38-1.66,22.69-3.84,34.09-5.26,8.56-1.07,17-2.75,25.63-3.45,7.47-.61,14.88-1.91,22.35-2.51,5.09-.41,10.12-1.47,15.27-1.28,2.2.08,4.44-.8,6.65-.75,6.09.16,12.06-1.49,18.16-1.14a24.9,24.9,0,0,0,4.28-.41,15,15,0,0,1,2.36-.38c7.05.32,14-1.43,21-1.11a36.5,36.5,0,0,0,8.59-.62,37.8,37.8,0,0,1,6.22-.32c4.62-.09,9.26.27,13.85-.79a19.31,19.31,0,0,1,4.31-.17h49.91a39.31,39.31,0,0,1,6.67.54c4.92.85,9.9.36,14.85.35a3.28,3.28,0,0,0,3.24-2.39c.11-.3.24-.59.36-.89,1.07-2.7,2.25-5.34,5.14-6.63a15,15,0,0,1,11.21-.8c1.21.4,2.4.89,3.62,1.27s2.14-.17,2.31-1.59.15-2.89.43-4.29a9.71,9.71,0,0,1,6.4-7.76c3.77-1.4,8.68.14,11.57,3.7,1.1,1.36,2,2.91,3,4.37,1.28,1.91,1.76,2.06,3.28.58A31.19,31.19,0,0,1,470,298a11,11,0,0,1,8.33-1.27,8.68,8.68,0,0,1,6.94,6.53,17,17,0,0,1,.11,8.54c-.43,1.87-1.06,3.69-1.57,5.53-.31,1.15.11,2,1.2,2.19a40.45,40.45,0,0,0,6.13,1c4,.15,8,.75,11.93.93,8.64.39,17.12,2.05,25.69,2.8,10.68.94,21.22,2.77,31.81,4.21,7.28,1,14.53,2.21,21.79,3.35,11.36,1.78,22.7,3.73,34,5.76,10.23,1.83,20.34,4.16,30.5,6.3,7.67,1.61,15.33,3.23,23,5q18,4.24,35.87,8.74,12.33,3.12,24.54,6.65a9.61,9.61,0,0,0,7.41-.37,3.6,3.6,0,0,1,.91-.3,6.71,6.71,0,0,0,5.89-5.39c1-3.57,5.81-5.87,9.46-4.46,3.48,1.35,5.51.83,7.51-2.33,3.11-4.9,13.39-5.85,17.37.61.9,1.44,1.24,3.49,3.1,4.09,1.6.53,3-.71,4.62-.92,2.83-.38,5.52-1.19,8.5-.21,4.74,1.55,6.9,4.88,7.54,9.52a21.12,21.12,0,0,1,0,2.87c0,3.16,0,3.27,2.82,4.06a11.81,11.81,0,0,1,5.73,3.31,12.45,12.45,0,0,1,3.37,11.46c-.94,4.51-1.52,5.17,4.13,7,6.51,2.11,12.94,4.59,19.26,7.33,5.42,2.35,11.07,4.18,16.58,6.32q15,5.82,29.9,11.76,19.14,7.67,38.24,15.47c6.81,2.78,13.54,5.73,20.35,8.52,11.83,4.84,23.66,9.71,35.55,14.4,11.6,4.58,23.33,8.81,34.9,13.46,9.51,3.83,19.22,7.06,28.95,10.2,12.17,3.93,24.35,7.81,36.64,11.36,10.44,3,20.74,6.52,31.16,9.64,14.54,4.37,29,9,43.61,13.15,13.39,3.77,26.76,7.61,40.22,11.14,15.46,4.05,30.86,8.33,46.45,11.94,21.35,4.94,42.73,9.66,64.24,13.8,11.61,2.23,23.23,4.44,34.9,6.32,10.41,1.68,20.76,3.67,31.27,4.69,4.61.44,9.16,1.38,13.74,2.06,2.85.42,5.7.74,8.54,1.17,7,1,13.86,2.48,20.84,3.07,5.56.47,11.08,1.34,16.71,1.32,4.44,0,8.88.87,13.32,1.36a23.49,23.49,0,0,0,2.85.39c10.07-.12,20.07,1.65,30.16,1.05,2.39-.15,4.8,0,7.2,0v5.76c-4.47-.08-9,.21-13.39-.77a25.53,25.53,0,0,0-5.26-.19,43.64,43.64,0,0,1-9.54-.7,20.55,20.55,0,0,0-4.3-.25,35.31,35.31,0,0,1-9.06-.73,4.63,4.63,0,0,0-1.43-.17c-5.46.34-10.79-1.11-16.24-1.13-3.18,0-6.33-.72-9.52-1-6.19-.59-12.34-1.59-18.51-2.43-7.59-1-15.19-2-22.78-3.12-7.28-1-14.55-2.08-21.8-3.27-12.77-2.11-25.55-4.19-38.27-6.55-12.1-2.24-24.15-4.77-36.2-7.27-9.39-2-18.75-4-28.11-6.11-3.59-.8-7.15-1.73-10.72-2.62-12.1-3-24.23-5.92-36.3-9.08-11.59-3-23.12-6.35-34.68-9.54-4.31-1.19-8.64-2.32-13-3.56q-13.59-3.92-27.17-7.91c-19.18-5.63-38.06-12.21-57.33-17.57q-8.31-2.32-16.48-5.16c-8.91-3.09-18.08-5.38-26.88-8.85-10.85-4.28-21.89-8.1-32.78-12.29Q975.65,461.4,957,453.86q-29.57-12-59-24.19c-7.83-3.25-15.68-6.44-23.6-9.45-8.37-3.18-16.61-6.69-25-9.92-9.24-3.58-18.54-7-27.82-10.49-3.6-1.35-7.2-2.67-10.79-4-1.19-.46-2.37-1-3.51-1.53a1.78,1.78,0,0,1-.78-2.79c.64-.92,1.47-1.71,2.06-2.65a8,8,0,0,0-5.06-12.33c-1.7-.39-3.48-.4-5.22-.62a2,2,0,0,1-2-2.65c.37-1.72,1-3.38,1.31-5.1.48-2.65.13-5.1-2.15-6.95a6.58,6.58,0,0,0-6.68-1.46,29.56,29.56,0,0,0-5.7,2.51c-.82.49-1.61,1-2.46,1.48a1.76,1.76,0,0,1-2.71-1c-.47-1.36-.81-2.76-1.25-4.14a10.63,10.63,0,0,0-2.33-4.15,5.67,5.67,0,0,0-8.15-.56,11.54,11.54,0,0,0-3.94,5.89c-1.19,4.21-2.74,5-6.11,1.33-.32-.35-.67-.68-1-1-1.07-1-2.19-2.09-3.79-1.38a4.93,4.93,0,0,0-3.21,4.4c-.07,1.35,1,2.89-.46,4-1.09.83-2.46.59-3.72.6a9.47,9.47,0,0,0-5.47,1.51c-2.2,1.54-4.43,1.32-6.86.6-14.56-4.35-29.29-8.06-44-11.67-15.84-3.87-31.79-7.27-47.69-10.85-19.83-4.46-39.9-7.45-59.89-10.94-10.86-1.89-21.78-3.42-32.69-5-7.58-1.08-15.19-2-22.81-2.86-4.43-.5-8.9-.76-13.35-1.18a77.79,77.79,0,0,1-8.08-1c-5.51-1.11-11.15-.55-16.67-1.6-2.33-.44-4.79-.17-7.18-.35s-3.19-1.48-2.4-3.59c.62-1.64,1.48-3.19,2.21-4.79a18.84,18.84,0,0,0,2-8.31c-.05-2.45-.93-4.42-3.11-5.56a5.6,5.6,0,0,0-6.3.62A30.76,30.76,0,0,0,466,308c-4.31,5.34-4.61,6.53-8.14-1a21.37,21.37,0,0,0-5.15-7.42c-2.74-2.37-5.8-1.77-7.38,1.51a8.44,8.44,0,0,0-.77,3.73c0,1.6,0,3.2,0,4.8a27.44,27.44,0,0,1-.14,2.87,1.92,1.92,0,0,1-2.7,1.81c-2.72-.94-5.41-2-8.11-3-.75-.27-1.47-.64-2.24-.84a7.56,7.56,0,0,0-9.69,6.07c0,.16,0,.32-.07.47-.82,4.53-.82,4.63-5.47,4.59-5.59-.05-11.2.47-16.74-.76a20.59,20.59,0,0,0-4.31-.16H340.33a26.79,26.79,0,0,0-6.68.57,6.76,6.76,0,0,1-1.89.28c-8.17-.41-16.25,1.13-24.4,1.07a28.37,28.37,0,0,0-7.63.63,4.61,4.61,0,0,1-1.42.21c-6.25-.26-12.42.85-18.64,1.09-1.75.07-3.49.32-5.24.51a16.3,16.3,0,0,1-2.37.34c-5.46-.33-10.82.83-16.24,1.14-5.08.3-10.14,1.08-15.22,1.62-3.81.4-7.63.73-11.43,1.16-4.76.53-9.5,1.27-14.26,1.66-8,.65-15.83,2.13-23.74,3.14-5.39.68-10.75,1.55-16.12,2.35-16.6,2.51-33.07,5.74-49.5,9.17-6.26,1.31-12.47,2.83-18.7,4.27-1.56.36-3.11.76-4.66,1.15a5.77,5.77,0,0,1-5-.86,12.79,12.79,0,0,0-8-2.74c-2.31.05-2.75-.53-2.85-2.85a12.44,12.44,0,0,0-.86-4.2c-1.68-4.11-5.49-5.51-9.42-3.34a21.36,21.36,0,0,0-3.36,2.68c-1.08.94-2.06,2-3.18,2.91a1.78,1.78,0,0,1-2.91-1.21,25.53,25.53,0,0,1-.3-3.81A13.18,13.18,0,0,0,65,332.06a5.78,5.78,0,0,0-5.22-3.62,4.93,4.93,0,0,0-4.53,2.2,25.17,25.17,0,0,0-2.64,5.63c-.82,2.25-1.69,4.49-2.67,6.67a1.93,1.93,0,0,1-2.77,1.14,31.46,31.46,0,0,1-3.91-1.81c-2.34-1.28-4.85-1.36-7.44-1.44-4.07-.12-7.67,4.82-6.68,8.75a46.07,46.07,0,0,0,2.55,6.71c.66,1.55.06,2.56-1.56,2.68s-3.52.12-5.28.13a13.37,13.37,0,0,0-5.58,1.21c-1.55.71-2.67,1.81-2.63,3.65,0,1.68,1.18,2.56,2.56,3.15,2.2.95,4.44,1.82,6.65,2.74.45.19.93.54.8,1a1.79,1.79,0,0,1-.82,1.05,11.85,11.85,0,0,1-2.23.87,69.43,69.43,0,0,0-9.23,3.95C9.77,379,5.13,381.18.05,382.13Z"/><path class="cls-2" d="M.05,133.49c2.1.47,3.72,1.81,5.37,3,8.06,6.05,16,12.23,24.18,18.12,4.79,3.46,9.83,6.59,14.92,9.61a37.15,37.15,0,0,0,13.57,4.52,7.61,7.61,0,0,0,2.38.06c5.84-1,11.54-2.27,16.86-5.19,7.48-4.09,14.16-9.25,20.87-14.43,4.42-3.41,9-6.7,13.25-10.28s8.79-6.91,13-10.52a87.12,87.12,0,0,1,22.27-14,22.4,22.4,0,0,0,2.08-1.16c1.26-.15,2.53-.27,3.79-.45,12.68-1.82,24.69-.38,35.81,6.64a234.27,234.27,0,0,1,23.48,16.4c.5.4,1,.8,1.47,1.23,4.44,4.1,8.91,8.18,13.31,12.32a19.92,19.92,0,0,0,4.67,3.29l1.94,1.87c8.42,4.36,14.74,11.48,22.26,17,14.48,10.72,26.86,24,41.84,34.16,9.49,6.41,18.27,13.82,27.87,20.06,10.94,7.11,21.56,14.74,33.36,20.47s23.82,7,36.56,3.35a112.67,112.67,0,0,0,32-14.45c13.22-8.84,27.85-14.14,44.21-12.82,9.78.79,19.15,3.34,28.35,6.63,16.52,5.9,32,14.22,48.25,20.76,7.52,3,14.89,6.43,22.54,9.12,13.1,4.61,26.22,3.76,39.52.44,13.66-3.42,25.47-10.65,37.64-17.21,20.91-11.27,41.23-23.71,63.42-32.49,14.92-5.89,29.67-4.33,44.21,1.23,17.17,6.56,32.42,17.12,49.46,24,19,7.7,37.5,16.83,57.44,22.28,12.92,3.54,25.66,7.77,38.8,10.51a67.54,67.54,0,0,0,13.9,1.52c12.38,0,24.82,1,37.15-.94a188.35,188.35,0,0,0,34.84-9.21c19-6.92,34.66-19.43,51.53-29.91,20.56-12.78,42-23.34,66.06-27.63a48.9,48.9,0,0,1,36,7.25c14.23,9.14,30,14.71,46.39,17.93,10.48,2.06,20.65-.32,30.2-5.68,9.38-5.26,17.47-12.19,25.78-18.81,11.07-8.82,22.24-17.49,33.67-25.84,11.66-8.52,22.4-18.25,34.25-26.53,11.37-7.94,22.84-15.45,36.65-19,14.59-3.69,27.43-.06,39.91,7,23,13.05,40.75,32,58.41,51.11q16.4,17.76,33.14,35.2a57,57,0,0,1,5.22,6.19v3.84a7.57,7.57,0,0,1-4-2.54c-5.31-5.32-11-10.29-15.82-16.05s-10.61-10.62-15.16-16.65c-2.28-3-5.31-5.52-8-8.23-7.6-7.55-14.39-15.86-22.2-23.21a185,185,0,0,0-21.06-17.35c-3.8-2.65-7.64-5.27-11.58-7.71-8.3-5.15-17.17-8.26-27.15-8.19A50.18,50.18,0,0,0,1340.5,138a121.29,121.29,0,0,0-24.68,13.71c-11,7.73-21.18,16.48-31.74,24.76-6.41,5-13.15,9.62-19.63,14.58-7,5.33-13.81,10.86-20.7,16.31-5.14,4.06-10.07,8.42-15.45,12.12-8.47,5.84-17.55,10.48-27.85,12.34a29.47,29.47,0,0,1-9,.13c-13.79-1.76-26.69-6.43-39.43-11.67a89.17,89.17,0,0,1-12.61-6.91,56.66,56.66,0,0,0-16.65-7.2,15.6,15.6,0,0,0-3.29-.6c-5.43-.08-10.84-.29-16.23.9a162.17,162.17,0,0,0-37.13,12.66,339.19,339.19,0,0,0-33.7,19.27c-7.92,5.11-15.57,10.63-23.71,15.42a143.4,143.4,0,0,1-19,9.1,175.06,175.06,0,0,1-32.24,9.21c-4.23.82-8.54,1.13-12.8,1.71-6.71.92-13.4.64-20.1.77a28.14,28.14,0,0,1-6.2-.53,18.1,18.1,0,0,0-4.28-.39,67.79,67.79,0,0,1-18.94-2.59C879,267,863,262.45,847.15,257.33c-6.86-2.22-13.42-5.19-20-7.95q-15.72-6.52-31.3-13.41c-4.23-1.86-8.36-4-12.44-6.2-9.42-5.1-18.9-10.1-28.79-14.25a56.9,56.9,0,0,0-12.85-3.78,76.85,76.85,0,0,0-11.46-.7c-9.65-.14-18.63,2.61-27.2,6.79-7,3.43-14.1,6.86-21,10.54-7.34,3.89-14.51,8.09-21.77,12.14q-5.65,3.17-11.32,6.27c-6.17,3.38-12.32,6.8-18.54,10.07a49.86,49.86,0,0,1-7.49,3.19,193,193,0,0,1-22.15,6.21c-6,1.22-12.11.9-18.15.33a63.29,63.29,0,0,1-18.42-5.09c-11.5-4.8-23-9.59-34.37-14.74-8.15-3.7-16.31-7.38-24.58-10.79a123.91,123.91,0,0,0-26.6-8c-3.45-.59-6.95-.95-10.45-1.32-2.89-.31-5.71.41-8.56.79a70,70,0,0,0-30.13,11.68c-3.71,2.49-7.61,4.72-11.49,6.94-7.44,4.27-15.75,6.15-23.89,8.49-12.79,3.67-25,1.72-36.8-3.84-8-3.76-15.36-8.57-22.76-13.3-10.25-6.54-20.17-13.55-29.9-20.84-6.53-4.88-13.19-9.59-19.73-14.45-3.72-2.76-7.21-5.78-10.68-8.87-6.68-5.93-13.39-11.84-20.44-17.35S240,165,233.49,159.16c-3.09-2.76-6.38-5.31-9.57-8-.61-.51-1.24-1-1.8-1.58a180.49,180.49,0,0,0-16.87-14.89c-7.71-6-15.75-11.51-24.68-15.59a60.38,60.38,0,0,0-14.7-4.31,22.31,22.31,0,0,0-7.6.12c-7.11,1.28-14,3.18-20.1,7.39-5.38,3.74-10.6,7.66-15.65,11.86-9,7.46-18.15,14.66-27.61,21.48-3.63,2.62-7.17,5.37-10.89,7.86a51.34,51.34,0,0,1-20.85,8.09c-5.9.93-11.46-.49-16.75-3a120.73,120.73,0,0,1-21.07-13.25c-7.41-5.58-14.9-11-22.34-16.57a7.47,7.47,0,0,0-3-1.49Z"/><path class="cls-5" d="M1484.16,230.45a6.65,6.65,0,0,1-3.63-2.21c-2.22-2.3-4.62-4.4-6.47-7.07a27.72,27.72,0,0,0-3.56-3.88c-8.6-8.35-16.11-17.76-24.91-25.92-3.86-5.36-8.85-9.66-13.42-14.34-2.46-2.52-4.33-5.53-6.93-7.94-12.33-11.44-25.12-22.26-39.79-30.65a64.42,64.42,0,0,0-18.83-6.88c-9.52-2-18.39.27-27.21,3.35a82.79,82.79,0,0,0-17,8.8,326.69,326.69,0,0,0-30.51,22.42c-7.43,6.07-15.11,11.78-22.87,17.41-6.59,4.79-12.92,9.93-19.31,15-7,5.56-13.78,11.43-21,16.77-7.46,5.56-15.54,10.19-24.71,12.39a43.49,43.49,0,0,1-19,.13,148.66,148.66,0,0,1-30.51-9.93,78.52,78.52,0,0,1-10.64-5.47,121.43,121.43,0,0,0-11.4-6.14,38.07,38.07,0,0,0-15.71-3.76c-10.1-.41-19.66,1.73-29.19,4.72a217.93,217.93,0,0,0-25,9.87c-6.41,2.92-12.31,6.8-18.4,10.31-10.13,5.84-19.67,12.58-29.43,19a149.89,149.89,0,0,1-30.43,15.12,155.49,155.49,0,0,1-29.16,7.79A81.77,81.77,0,0,1,940,270.81c-5.91-.17-11.84-.21-17.75,0a110.49,110.49,0,0,1-19.59-1.22,119.18,119.18,0,0,1-14.9-3.59c-8-2.2-16-4.45-24-6.84-11-3.32-22-6.75-32.55-11.46-9.92-4.43-20-8.41-30-12.84-5.24-2.34-10.57-4.48-15.54-7.46-5.2-3.13-10.69-5.78-16.1-8.55-8.25-4.22-16.73-8-25.93-9.83a63.07,63.07,0,0,0-11.37-1.62,58.31,58.31,0,0,0-17.94,2.73A86.9,86.9,0,0,0,701,215.48c-6.29,3.16-12.66,6.17-18.87,9.48-9,4.81-17.93,9.83-26.9,14.75q-6.51,3.58-13.06,7.11c-5.21,2.79-10.44,5.55-15.67,8.32a39.45,39.45,0,0,1-8.49,3.24c-4.64,1.21-9.24,2.59-13.85,3.91a24.18,24.18,0,0,1-6.16.82c-1.91.05-3.82.3-5.72.47a5.52,5.52,0,0,1-1.42.2c-6.13-1-12.41-.51-18.45-2.62-6.35-2.21-12.5-4.9-18.71-7.43-11.55-4.71-22.94-9.76-34.26-15-10.87-5.05-21.93-9.76-33.72-12.34-6.24-1.37-12.48-2.72-18.95-2.71a55.56,55.56,0,0,0-12.34,1.44,82.35,82.35,0,0,0-26.77,11.45C424.29,238.74,421,241,417.5,243c-9.94,5.45-20.85,8-31.82,10.29a10.63,10.63,0,0,1-2.87.21c-8.32-.55-16.5-1.63-24.13-5.41A196.47,196.47,0,0,1,339.62,237q-10.49-6.76-20.75-13.84c-4.47-3.08-8.74-6.46-13.13-9.67-5.68-4.14-11.44-8.18-17.09-12.37-5.89-4.39-11.35-9.31-16.85-14.18-4.66-4.13-9.42-8.16-14.33-12-6.55-5.11-13.12-10.18-19.22-15.83-1.63-1.52-3.83-2.39-4.93-4.48,4.23.34,7.57,2.68,10.49,5.36,5.9,5.41,12.43,10,18.52,15.2,3.77,3.2,7.61,6.3,11.31,9.6a267.33,267.33,0,0,0,23.39,19c8.36,5.9,16.64,11.91,24.89,18,3.23,2.37,6.55,4.57,10,6.66s7,4.51,10.43,6.85a146.43,146.43,0,0,0,20.53,11.41,32,32,0,0,0,11.55,3,11,11,0,0,1,2.38.2c4,1.15,7.91.66,11.85-.23,9.54-2.16,19-4.68,27.62-9.39,2.66-1.44,5.2-3.12,7.75-4.76a107,107,0,0,1,18.61-9.88,66.06,66.06,0,0,1,31-4.58,87.89,87.89,0,0,1,18.26,3.93,249.08,249.08,0,0,1,26.83,10.33c12.79,5.84,25.59,11.69,38.74,16.73,4.47,1.71,8.84,3.72,13.29,5.51a32.12,32.12,0,0,0,12.57,2.72,16.83,16.83,0,0,1,3.81.39,13.47,13.47,0,0,0,5.69,0,30.52,30.52,0,0,1,5.24-.4,21.31,21.31,0,0,0,6.16-.85c6.71-2.09,13.55-3.74,20.11-6.37,4.19-1.68,7.9-4.19,11.89-6.2,4.85-2.43,9.47-5.32,14.23-7.93,8.28-4.52,16.67-8.84,24.87-13.49,5.71-3.24,11.6-6.1,17.4-9.15a152.13,152.13,0,0,1,18.86-8.32,54.74,54.74,0,0,1,27.83-2.73,89.29,89.29,0,0,1,25.42,8.3q7.76,3.8,15.44,7.73c3,1.54,5.84,3.32,8.82,4.85,8.26,4.24,16.82,7.8,25.37,11.4,8.84,3.72,17.61,7.6,26.52,11.16a204.41,204.41,0,0,0,21.39,7.08c5.24,1.44,10.47,2.92,15.65,4.54,7.64,2.39,15.41,4.24,23.23,6,2.52.55,5.1.41,7.6.81,9.56,1.54,19.16.5,28.73.9a77.22,77.22,0,0,0,15.73-1.36,147.36,147.36,0,0,0,27-6.59c11.72-4.3,23.16-9.2,33.51-16.38,11.17-7.75,22.54-15.22,34.37-21.92,6.81-3.86,13.86-7.32,20.95-10.64a143.69,143.69,0,0,1,34.74-10.76,54.39,54.39,0,0,1,10-1.25,44.16,44.16,0,0,1,10.42,1.33,51.8,51.8,0,0,1,16.31,6.82c8.63,5.69,18.07,9.55,27.78,12.86a120.68,120.68,0,0,0,17,4.9,45.08,45.08,0,0,0,32.24-5.84c7.61-4.51,14.39-10.08,21.28-15.53,11.52-9.13,23-18.34,34.95-26.88,5.72-4.08,11.15-8.55,16.6-13,6.18-5.05,12.66-9.74,19-14.56a157.69,157.69,0,0,1,22.36-13.94c5.74-3,11.83-4.74,18.05-6.3,9.25-2.32,18.06-.61,26.83,2.29,7.08,2.35,13.11,6.61,19.35,10.48,7.09,4.39,13.37,9.82,19.81,15.08a144.42,144.42,0,0,1,16.57,15.94c6.06,6.83,12.83,13,18.83,19.79,4.23,4.81,9,9.09,13.06,14,5.19,6.35,11.28,11.76,16.91,17.66a34.91,34.91,0,0,0,2.92,2.47Z"/><path class="cls-6" d="M1484.16,1c-2.72.07-5.43.22-8.15.22H6.75C4.52,1.23,2.28,1.08.05,1,.05.69-.08.24.08.08s.61,0,.93,0H1479.84c1.44,0,2.88,0,4.32,0Z"/></svg>